<svg width="91" height="91" viewBox="0 0 91 91" fill="none" xmlns="http://www.w3.org/2000/svg">
<path fill-rule="evenodd" clip-rule="evenodd" d="M48.4048 6.53027C48.4048 5.70184 47.7332 5.03027 46.9048 5.03027C46.0764 5.03027 45.4048 5.70184 45.4048 6.53027V42.0966H6.75439C5.92603 42.0966 5.25439 42.7682 5.25439 43.5966C5.25439 44.425 5.92603 45.0966 6.75439 45.0966H45.4048V84.6012C45.4048 85.4296 46.0764 86.1012 46.9048 86.1012C47.7332 86.1012 48.4048 85.4296 48.4048 84.6012V45.0966H84.8215C85.65 45.0966 86.3215 44.425 86.3215 43.5966C86.3215 42.7682 85.6499 42.0966 84.8215 42.0966H48.4048V6.53027Z" fill="black"/>
<path d="M45.4048 42.0966V46.5966H49.9048V42.0966H45.4048ZM45.4048 45.0966H49.9048V40.5966H45.4048V45.0966ZM48.4048 45.0966V40.5966H43.9048V45.0966H48.4048ZM48.4048 42.0966H43.9048V46.5966H48.4048V42.0966ZM46.9048 9.53027C45.248 9.53027 43.9048 8.18724 43.9048 6.53027H52.9048C52.9048 3.21644 50.2183 0.530273 46.9048 0.530273V9.53027ZM49.9048 6.53027C49.9048 8.18724 48.5616 9.53027 46.9048 9.53027V0.530273C43.5913 0.530273 40.9048 3.21644 40.9048 6.53027H49.9048ZM49.9048 42.0966V6.53027H40.9048V42.0966H49.9048ZM6.75439 46.5966H45.4048V37.5966H6.75439V46.5966ZM9.75439 43.5966C9.75439 45.2536 8.41119 46.5966 6.75439 46.5966V37.5966C3.44086 37.5966 0.754395 40.2828 0.754395 43.5966H9.75439ZM6.75439 40.5966C8.41119 40.5966 9.75439 41.9396 9.75439 43.5966H0.754395C0.754395 46.9104 3.44086 49.5966 6.75439 49.5966V40.5966ZM45.4048 40.5966H6.75439V49.5966H45.4048V40.5966ZM49.9048 84.6012V45.0966H40.9048V84.6012H49.9048ZM46.9048 81.6012C48.5616 81.6012 49.9048 82.9442 49.9048 84.6012H40.9048C40.9048 87.915 43.5913 90.6012 46.9048 90.6012V81.6012ZM43.9048 84.6012C43.9048 82.9442 45.248 81.6012 46.9048 81.6012V90.6012C50.2183 90.6012 52.9048 87.915 52.9048 84.6012H43.9048ZM43.9048 45.0966V84.6012H52.9048V45.0966H43.9048ZM84.8215 40.5966H48.4048V49.5966H84.8215V40.5966ZM81.8215 43.5966C81.8215 41.9399 83.1646 40.5966 84.8215 40.5966V49.5966C88.1354 49.5966 90.8215 46.9102 90.8215 43.5966H81.8215ZM84.8215 46.5966C83.1647 46.5966 81.8215 45.2536 81.8215 43.5966H90.8215C90.8215 40.2828 88.1351 37.5966 84.8215 37.5966V46.5966ZM48.4048 46.5966H84.8215V37.5966H48.4048V46.5966ZM43.9048 6.53027V42.0966H52.9048V6.53027H43.9048Z" fill="black"/>
</svg>
