<svg width="92" height="85" viewBox="0 0 92 85" fill="none" xmlns="http://www.w3.org/2000/svg">
<line x1="5.85449" y1="23.4182" x2="86.2466" y2="23.4182" stroke="black" stroke-width="11" stroke-linecap="round"/>
<path d="M73.5532 20.0324C73.5532 27.5111 67.4909 33.5733 60.0132 33.5733C52.5355 33.5733 46.4731 27.5111 46.4731 20.0324C46.4731 12.5537 52.5355 6.49146 60.0132 6.49146C67.4909 6.49146 73.5532 12.5537 73.5532 20.0324Z" fill="white" stroke="black" stroke-width="11"/>
<line x1="86.2466" y1="62.3447" x2="5.85449" y2="62.3447" stroke="black" stroke-width="11" stroke-linecap="round"/>
<path d="M18.5479 65.7305C18.5479 58.2518 24.6102 52.1896 32.0879 52.1896C39.5656 52.1896 45.6279 58.2518 45.6279 65.7305C45.6279 73.2092 39.5656 79.2715 32.0879 79.2715C24.6102 79.2715 18.5479 73.2092 18.5479 65.7305Z" fill="white" stroke="black" stroke-width="11"/>
</svg>
