<svg width="20" height="22" viewBox="0 0 20 22" fill="none" xmlns="http://www.w3.org/2000/svg">
<path d="M1 22H6.4375C6.74816 22 7 21.7482 7 21.4375V16C7 14.3431 8.34315 13 10 13C11.6569 13 13 14.3431 13 16V21.4375C13 21.7482 13.2518 22 13.5625 22H19C19.5523 22 20 21.5523 20 21V9.44536C20 9.16188 19.8797 8.89171 19.669 8.70207L10.669 0.602068C10.2887 0.259794 9.71134 0.259794 9.33103 0.602068L0.331035 8.70207C0.120321 8.89171 0 9.16188 0 9.44536V21C0 21.5523 0.447715 22 1 22Z" fill="black"/>
</svg>
