<svg width="20" height="22" viewBox="0 0 20 22" fill="none" xmlns="http://www.w3.org/2000/svg">
<path fill-rule="evenodd" clip-rule="evenodd" d="M20 10C20 15.5228 15.5228 20 10 20C8.5458 20 7.1641 19.6896 5.91754 19.1314L1.58686 21.6577C1.36173 21.789 1.08774 21.5905 1.14236 21.3357L2.22398 16.2881C0.833146 14.5703 0 12.3824 0 10C0 4.47715 4.47715 0 10 0C15.5228 0 20 4.47715 20 10ZM5.85 11.2C6.59558 11.2 7.2 10.5956 7.2 9.85C7.2 9.10442 6.59558 8.5 5.85 8.5C5.10442 8.5 4.5 9.10442 4.5 9.85C4.5 10.5956 5.10442 11.2 5.85 11.2ZM11.4124 9.85C11.4124 10.5956 10.808 11.2 10.0624 11.2C9.31684 11.2 8.71242 10.5956 8.71242 9.85C8.71242 9.10442 9.31684 8.5 10.0624 8.5C10.808 8.5 11.4124 9.10442 11.4124 9.85ZM14.3824 11.2C15.128 11.2 15.7324 10.5956 15.7324 9.85C15.7324 9.10442 15.128 8.5 14.3824 8.5C13.6368 8.5 13.0324 9.10442 13.0324 9.85C13.0324 10.5956 13.6368 11.2 14.3824 11.2Z" fill="#8E8E8E"/>
</svg>
