<svg width="22" height="22" viewBox="0 0 22 22" fill="none" xmlns="http://www.w3.org/2000/svg">
<path fill-rule="evenodd" clip-rule="evenodd" d="M14 9C14 11.7614 11.7614 14 9 14C6.23858 14 4 11.7614 4 9C4 6.23858 6.23858 4 9 4C11.7614 4 14 6.23858 14 9ZM13.5719 16.7539C12.232 17.5457 10.6691 18 9 18C4.02944 18 0 13.9706 0 9C0 4.02944 4.02944 0 9 0C13.9706 0 18 4.02944 18 9C18 10.6691 17.5457 12.232 16.7539 13.5719L20.591 17.409C21.4697 18.2877 21.4697 19.7123 20.591 20.591C19.7123 21.4697 18.2877 21.4697 17.409 20.591L13.5719 16.7539Z" fill="#8E8E8E"/>
</svg>
